<?xml version="1.0" encoding="UTF-8"?>
<svg id="Layer_2" data-name="Layer 2" xmlns="http://www.w3.org/2000/svg" viewBox="0 0 519.96 150.01">
  <defs>
    <style>
      .cls-1 {
        fill: #1e293b;
      }
    </style>
  </defs>
  <g id="svg75584">
    <g id="title">
      <path id="path75593" class="cls-1" d="M77.87,67.31c-10.11-25.82-46.47-32.89-65.62-12.84C-6.82,69.78,2.63,122.09,.54,142.95l21.17,7.06v-31.61c32.75,18.01,71.07-16.78,56.17-51.09h0Zm-37.11,34.72c-25.02-.53-25.01-37.58,0-38.1,25.02,.53,25.01,37.58,0,38.1Z"/>
      <path id="path75595" class="cls-1" d="M88.5,122.07h21.31V8.33l-21.31,7.06V122.07Z"/>
      <path id="path75597" class="cls-1" d="M175.73,42.62l.14,4.52c-25.51-13.97-59.38,6.68-58.42,35.85-.96,29.11,32.92,49.8,58.42,35.84l-.14,3.25h21.17V42.62h-21.17Zm-8.47,56.73c-28.71,14.46-41.72-33.17-9.6-35.42,18.79-.71,26.36,26.69,9.6,35.42Z"/>
      <path id="path75599" class="cls-1" d="M214.19,150.01h22.44l42.9-106.55h-22.58l-17.78,44.59-18.91-44.59h-23.28l31.47,71.12-14.25,35.42Z"/>
      <path id="path75601" class="cls-1" d="M304,43.75c-.08-12.33,9.97-22.58,22.44-22.58V0c-17.22-.06-33.72,10.66-40.22,26.67-6.47,10.51-2.26,82.69-3.39,95.4h21.17V63.5h22.44v-19.76h-22.44Z"/>
      <path id="path75603" class="cls-1" d="M329.12,122.07h21.31V40.64l-21.31,7.06V122.07Z"/>
      <path id="path75605" class="cls-1" d="M423.41,55.18c-10.05-10.15-26.47-13.22-39.37-7.34v-5.22h-21.17c0,1.18,.05,37.99-.14,37.82h.14v41.63h21.17v-43.75c.99-6.91,6.91-12.28,14.25-12.28,7.9,0,14.39,6.49,14.39,14.39v41.63h21.17c-1.36-17.71,5.51-53.84-10.44-66.89Z"/>
      <path id="path75607" class="cls-1" d="M442.62,98.5c10.07,25.87,46.53,32.89,65.62,12.84,7.42-7.51,11.83-17.81,11.71-28.51,0,0,0-68.44,0-68.44l-21.17-7.06V47.42c-32.84-17.79-70.91,16.65-56.17,51.09Zm37.11-34.72c25.04,.52,25.01,37.68,0,38.1-25.01-.43-25.03-37.58,0-38.1Z"/>
    </g>
  </g>
</svg>