<svg xmlns:dc="http://purl.org/dc/elements/1.1/" xmlns:cc="http://creativecommons.org/ns#" xmlns:rdf="http://www.w3.org/1999/02/22-rdf-syntax-ns#" xmlns:svg="http://www.w3.org/2000/svg" xmlns="http://www.w3.org/2000/svg" xmlns:xlink="http://www.w3.org/1999/xlink" id="svg75584" viewBox="0 0 1024 768" height="768px" width="1024px" version="1.1">
  <metadata id="metadata75590">
    <rdf:rdf>
      <cc:work rdf:about="">
        <dc:format>image/svg+xml</dc:format>
        <dc:type rdf:resource="http://purl.org/dc/dcmitype/StillImage"></dc:type>
      </cc:work>
    </rdf:rdf>
  </metadata>
  <defs id="defs75588"></defs>
  <linearGradient spreadMethod="pad" y2="30%" x2="-10%" y1="120%" x1="30%" id="3d_gradient2-logo-12d72cfe-e4a1-4cd2-abd6-64f1a5ead495">
    <stop id="stop75565" stop-opacity="1" stop-color="#ffffff" offset="0%"></stop>
    <stop id="stop75567" stop-opacity="1" stop-color="#000000" offset="100%"></stop>
  </linearGradient>
  <linearGradient gradientTransform="rotate(-30)" spreadMethod="pad" y2="30%" x2="-10%" y1="120%" x1="30%" id="3d_gradient3-logo-12d72cfe-e4a1-4cd2-abd6-64f1a5ead495">
    <stop id="stop75570" stop-opacity="1" stop-color="#ffffff" offset="0%"></stop>
    <stop id="stop75572" stop-opacity="1" stop-color="#cccccc" offset="50%"></stop>
    <stop id="stop75574" stop-opacity="1" stop-color="#000000" offset="100%"></stop>
  </linearGradient>
  <g id="logo-group">
    <image xlink:href="" id="container" x="272" y="144" width="480" height="480" style="display: none;" transform="translate(0 0)"></image>
    <g id="logo-center" transform="translate(5.684341886080802e-14 0)">
      <image xlink:href="" id="icon_container" style="display: none;" x="0" y="0"></image>
      <g id="slogan" style="font-style:normal;font-weight:400;font-size:32px;line-height:1;font-family:Montserrat;font-variant-ligatures:none;text-align:center;text-anchor:middle" transform="translate(0 0)"></g>
      <g id="title" style="font-style:normal;font-weight:700;font-size:72px;line-height:1;font-family:'Brandmark1 Bold';font-variant-ligatures:normal;text-align:center;text-anchor:middle" transform="translate(0 0)">
        <path id="path75593" style="font-style:normal;font-weight:700;font-size:72px;line-height:1;font-family:'Brandmark1 Bold';font-variant-ligatures:normal;text-align:center;text-anchor:middle" d="m 419.04969,-25.416 c -1.08,-2.448 -2.52,-4.608 -4.392,-6.552 -1.944,-1.872 -4.104,-3.312 -6.552,-4.392 -2.52,-1.08 -5.184,-1.584 -7.992,-1.584 -2.736,0 -5.472,0.504 -7.992,1.584 -2.448,1.08 -4.608,2.52 -6.552,4.392 -1.872,1.872 -3.312,4.104 -4.392,6.552 -1.008,2.52 -1.584,5.184 -1.584,7.992 v 30.6 l 10.8,3.6 V 0.648 c 0.576,0.288 1.152,0.576 1.728,0.792 2.52,1.08 5.256,1.656 7.992,1.656 2.736,0 5.472,-0.576 7.992,-1.656 2.448,-1.008 4.608,-2.448 6.552,-4.392 1.872,-1.872 3.312,-4.032 4.392,-6.48 1.08,-2.52 1.584,-5.256 1.584,-7.992 0,-2.808 -0.504,-5.472 -1.584,-7.992 z m -18.936,17.712 c -5.328,0 -9.72,-4.392 -9.72,-9.72 0,-5.328 4.392,-9.72 9.72,-9.72 5.328,0 9.72,4.392 9.72,9.72 0,5.328 -4.392,9.72 -9.72,9.72 z" stroke-width="0" stroke-linejoin="miter" stroke-miterlimit="2" fill="#fcfcfc" stroke="#fcfcfc" transform="translate(0 316.36432) translate(252.29179739999995 35.38975999999999) scale(1.96) translate(-379.59369 37.944)"></path>
        <path id="path75595" style="font-style:normal;font-weight:700;font-size:72px;line-height:1;font-family:'Brandmark1 Bold';font-variant-ligatures:normal;text-align:center;text-anchor:middle" d="m 424.46994,2.52 h 10.872 v -58.032 l -10.872,3.6 z" stroke-width="0" stroke-linejoin="miter" stroke-miterlimit="2" fill="#fcfcfc" stroke="#fcfcfc" transform="translate(0 316.36432) translate(340.24924739999994 0.956479999999992) scale(1.96) translate(-424.46994 55.512)"></path>
        <path id="path75597" style="font-style:normal;font-weight:700;font-size:72px;line-height:1;font-family:'Brandmark1 Bold';font-variant-ligatures:normal;text-align:center;text-anchor:middle" d="m 468.97606,-38.016 0.072,2.304 c -2.88,-1.44 -6.048,-2.232 -9.288,-2.232 -2.736,0 -5.472,0.504 -7.992,1.584 -2.448,1.08 -4.608,2.52 -6.552,4.392 -1.872,1.872 -3.312,4.104 -4.392,6.552 -1.008,2.52 -1.584,5.256 -1.584,7.992 0,2.736 0.576,5.472 1.584,7.992 1.08,2.448 2.52,4.608 4.392,6.552 1.944,1.872 4.104,3.312 6.552,4.392 2.52,1.008 5.256,1.584 7.992,1.584 3.24,0 6.408,-0.792 9.288,-2.232 l -0.072,1.656 h 10.8 v -40.536 z m -4.32,28.944 c -1.44,0.864 -3.168,1.368 -4.896,1.368 -5.328,0 -9.72,-4.392 -9.72,-9.72 0,-5.328 4.392,-9.72 9.72,-9.72 1.872,0 3.744,0.504 5.256,1.584 1.584,0.936 2.808,2.376 3.528,4.032 0.648,1.296 0.936,2.664 0.936,4.104 0,1.728 -0.432,3.384 -1.296,4.896 -0.864,1.44 -2.016,2.664 -3.528,3.456 z" stroke-width="0" stroke-linejoin="miter" stroke-miterlimit="2" fill="#fcfcfc" stroke="#fcfcfc" transform="translate(0 316.36432) translate(369.1986826 35.24864) scale(1.96) translate(-439.24006 38.016)"></path>
        <path id="path75599" style="font-style:normal;font-weight:700;font-size:72px;line-height:1;font-family:'Brandmark1 Bold';font-variant-ligatures:normal;text-align:center;text-anchor:middle" d="m 488.59719,16.776 h 11.448 l 21.888,-54.36 h -11.52 l -9.072,22.752 -9.648,-22.752 h -11.88 l 16.056,36.288 z" stroke-width="0" stroke-linejoin="miter" stroke-miterlimit="2" fill="#fcfcfc" stroke="#fcfcfc" transform="translate(0 316.36432) translate(448.72201739999997 36.09535999999999) scale(1.96) translate(-479.81319 37.584)"></path>
        <path id="path75601" style="font-style:normal;font-weight:700;font-size:72px;line-height:1;font-family:'Brandmark1 Bold';font-variant-ligatures:normal;text-align:center;text-anchor:middle" d="m 534.41731,-37.44 v -0.072 c 0,-6.264 5.112,-11.448 11.448,-11.448 v -10.8 c -3.024,0 -5.976,0.648 -8.712,1.8 -2.664,1.08 -5.04,2.664 -7.056,4.752 -2.016,2.016 -3.672,4.392 -4.752,7.056 -1.152,2.736 -1.728,5.688 -1.728,8.64 V 2.52 h 10.8 v -29.88 h 11.448 v -10.08 z" stroke-width="0" stroke-linejoin="miter" stroke-miterlimit="2" fill="#fcfcfc" stroke="#fcfcfc" transform="translate(0 316.36432) translate(534.5780926 -7.369599999999998) scale(1.96) translate(-523.61731 59.76)"></path>
        <path id="path75603" style="font-style:normal;font-weight:700;font-size:72px;line-height:1;font-family:'Brandmark1 Bold';font-variant-ligatures:normal;text-align:center;text-anchor:middle" d="m 547.23556,2.52 h 10.872 v -41.544 l -10.872,3.6 z" stroke-width="0" stroke-linejoin="miter" stroke-miterlimit="2" fill="#fcfcfc" stroke="#fcfcfc" transform="translate(0 316.36432) translate(580.8698625999999 33.27295999999999) scale(1.96) translate(-547.23556 39.024)"></path>
        <path id="path75605" style="font-style:normal;font-weight:700;font-size:72px;line-height:1;font-family:'Brandmark1 Bold';font-variant-ligatures:normal;text-align:center;text-anchor:middle" d="m 595.34169,-31.608 c -3.456,-3.384 -7.992,-5.256 -12.816,-5.256 -2.592,0 -5.04,0.504 -7.272,1.512 v -2.664 h -10.8 v 17.64 c -0.072,0.576 -0.072,1.08 -0.072,1.656 h 0.072 V 2.52 h 10.8 V -19.8 c 0.504,-3.528 3.528,-6.264 7.272,-6.264 4.032,0 7.344,3.312 7.344,7.344 V 2.52 h 10.8 v -21.24 c 0,-4.896 -1.944,-9.432 -5.328,-12.888 z" stroke-width="0" stroke-linejoin="miter" stroke-miterlimit="2" fill="#fcfcfc" stroke="#fcfcfc" transform="translate(0 316.36432) translate(614.4762774000002 35.24864) scale(1.96) translate(-564.38169 38.016)"></path>
        <path id="path75607" style="font-style:normal;font-weight:700;font-size:72px;line-height:1;font-family:'Brandmark1 Bold';font-variant-ligatures:normal;text-align:center;text-anchor:middle" d="m 605.14606,-9.504 c 1.08,2.448 2.52,4.68 4.392,6.552 1.944,1.872 4.104,3.384 6.552,4.392 2.52,1.08 5.256,1.584 7.992,1.584 2.736,0 5.472,-0.504 7.992,-1.584 2.448,-1.008 4.608,-2.52 6.552,-4.392 1.872,-1.872 3.312,-4.104 4.392,-6.552 1.08,-2.52 1.584,-5.184 1.584,-7.992 v -34.92 l -10.8,-3.6 v 20.448 c -0.576,-0.288 -1.152,-0.576 -1.728,-0.792 -2.52,-1.08 -5.184,-1.584 -7.992,-1.584 -2.736,0 -5.472,0.504 -7.992,1.584 -2.448,1.008 -4.608,2.52 -6.552,4.392 -1.872,1.872 -3.312,4.104 -4.392,6.552 -1.008,2.52 -1.584,5.184 -1.584,7.92 0,2.808 0.576,5.472 1.584,7.992 z m 18.936,-17.712 c 5.328,0 9.72,4.392 9.72,9.72 0,5.4 -4.392,9.72 -9.72,9.72 -5.328,0 -9.72,-4.32 -9.72,-9.72 0,-5.328 4.392,-9.72 9.72,-9.72 z" stroke-width="0" stroke-linejoin="miter" stroke-miterlimit="2" fill="#fcfcfc" stroke="#fcfcfc" transform="translate(0 316.36432) translate(691.2698025999999 -0.03135999999999939) scale(1.96) translate(-603.56206 56.016)"></path>
      </g>
      <image xlink:href="" id="icon" style="display: none;" x="0" y="0"></image>
    </g>
  </g>
</svg>